<?xml version="1.0" encoding="UTF-8"?>
<svg width="33px" height="33px" viewBox="0 0 33 33" version="1.1" xmlns="http://www.w3.org/2000/svg" xmlns:xlink="http://www.w3.org/1999/xlink">
    <title>8DF2CEE0-17D6-429D-8C80-DCD57C7AC9E1</title>
    <g id="404-&amp;-Maintenance-Pages" stroke="none" stroke-width="1" fill="none" fill-rule="evenodd">
        <g id="404" transform="translate(-704.000000, -219.000000)" fill="#0078B7" fill-rule="nonzero">
            <g id="Group" transform="translate(684.000000, 199.000000)">
                <g id="search" transform="translate(36.500000, 36.499947) scale(-1, 1) translate(-36.500000, -36.499947) translate(20.000000, 20.000000)">
                    <path d="M32.6240545,30.8096968 L24.5704684,22.7562818 C26.5723178,20.3489989 27.7783542,17.2577822 27.7783542,13.8896048 C27.7783542,6.23084594 21.5476793,0 13.8892626,0 C6.23067487,0 0,6.23084594 0,13.8896048 C0,21.5478504 6.23067487,27.7781831 13.8892626,27.7781831 C17.257269,27.7781831 20.3486568,26.5723178 22.7559396,24.5704684 L30.8096968,32.6240545 C31.0601418,32.8746706 31.3885942,32.9998931 31.7168756,32.9998931 C32.045157,32.9998931 32.3736095,32.8746706 32.6242256,32.6240545 C33.1252867,32.1229934 33.1252867,31.3107578 32.6240545,30.8096968 Z M2.5660349,13.8896048 C2.5660349,7.64575759 7.64558652,2.5660349 13.8892626,2.5660349 C20.1327677,2.5660349 25.2121482,7.64575759 25.2121482,13.8896048 C25.2121482,20.1329387 20.1327677,25.2121482 13.8892626,25.2121482 C7.64558652,25.2121482 2.5660349,20.1329387 2.5660349,13.8896048 Z" id="icon/search" transform="translate(16.500000, 16.499947) scale(-1, 1) translate(-16.500000, -16.499947) "></path>
                </g>
            </g>
        </g>
    </g>
</svg>